<svg xmlns="http://www.w3.org/2000/svg" viewBox="0 0 200 113" width="100%" height="100%">
  <rect width="200" height="113" fill="#070a13" />
  <path d="M0 20 h200 M0 40 h200 M0 60 h200 M0 80 h200 M0 100 h200 M40 0 v113 M80 0 v113 M120 0 v113 M160 0 v113" stroke="rgba(255,255,255,0.015)" stroke-width="1" />
  <rect x="20" y="20" width="160" height="73" rx="8" fill="rgba(11, 15, 25, 0.9)" stroke="#06b6d4" stroke-width="1"/>
  <rect x="35" y="38" width="55" height="6" rx="2" fill="#3b82f6" opacity="0.3" />
  <rect x="35" y="50" width="40" height="6" rx="2" fill="#3b82f6" opacity="0.3" />
  <rect x="35" y="62" width="70" height="6" rx="2" fill="#06b6d4" opacity="0.5" />
  
  <g transform="translate(130, 36)">
    <rect x="0" y="0" width="36" height="24" rx="3" fill="#070a13" stroke="#06b6d4" stroke-width="1" />
    <rect x="4" y="4" width="8" height="6" fill="#3b82f6" opacity="0.8" />
    <line x1="4" y1="16" x2="20" y2="16" stroke="#ffffff" stroke-width="1" opacity="0.5" />
    <circle cx="28" cy="18" r="3" fill="#10b981" />
  </g>
  <g transform="translate(142, 68)">
    <circle cx="8" cy="8" r="8" fill="#10b981" opacity="0.2" />
    <rect x="4" y="6" width="8" height="6" rx="1" fill="#10b981" />
    <path d="M5 6 V4a3 3 0 0 1 6 0 v2" fill="none" stroke="#10b981" stroke-width="1" />
  </g>
  <text x="100" y="104" fill="#6b7280" font-size="7" font-family="system-ui" text-anchor="middle" font-weight="600" letter-spacing="0.1em">SECURE PAYMENT FLOW</text>
</svg>
