<svg xmlns="http://www.w3.org/2000/svg" viewBox="0 0 200 113" width="100%" height="100%">
  <rect width="200" height="113" fill="#070a13" />
  <path d="M0 20 h200 M0 40 h200 M0 60 h200 M0 80 h200 M0 100 h200 M40 0 v113 M80 0 v113 M120 0 v113 M160 0 v113" stroke="rgba(255,255,255,0.015)" stroke-width="1" />
  <g transform="translate(10, 20)">
    <circle cx="25" cy="30" r="12" fill="#0b0f19" stroke="#3b82f6" stroke-width="1" />
    <path d="M 21 27 L 17 31 M 21 33 L 17 29 M 29 27 L 33 31 M 29 33 L 33 29" stroke="#3b82f6" stroke-width="1" />
    <text x="25" y="52" fill="#6b7280" font-size="5" font-family="system-ui" text-anchor="middle">BUILD</text>
    
    <line x1="37" y1="30" x2="63" y2="30" stroke="rgba(255,255,255,0.15)" stroke-width="1.5" />
    
    <circle cx="75" cy="30" r="12" fill="#0b0f19" stroke="#06b6d4" stroke-width="1" />
    <path d="M 70 30 L 74 34 L 81 26" fill="none" stroke="#06b6d4" stroke-width="1.5" stroke-linecap="round" stroke-linejoin="round" />
    <text x="75" y="52" fill="#6b7280" font-size="5" font-family="system-ui" text-anchor="middle">INTEGRATION</text>
    
    <line x1="87" y1="30" x2="113" y2="30" stroke="rgba(255,255,255,0.15)" stroke-width="1.5" />
    
    <circle cx="125" cy="30" r="12" fill="#0b0f19" stroke="#10b981" stroke-width="1" />
    <path d="M 125 21 v18 M 120 33 L 125 39 L 130 33" fill="none" stroke="#10b981" stroke-width="1.5" stroke-linecap="round" stroke-linejoin="round" />
    <text x="125" y="52" fill="#6b7280" font-size="5" font-family="system-ui" text-anchor="middle">AWS DEPLOY</text>
  </g>
  <text x="100" y="105" fill="#6b7280" font-size="6.5" font-family="system-ui" text-anchor="middle" font-weight="600" letter-spacing="0.1em">BLUE-GREEN CI/CD PIPELINE</text>
</svg>
