<svg xmlns="http://www.w3.org/2000/svg" viewBox="0 0 200 113" width="100%" height="100%">
  <rect width="200" height="113" fill="#070a13" />
  <path d="M0 20 h200 M0 40 h200 M0 60 h200 M0 80 h200 M0 100 h200 M40 0 v113 M80 0 v113 M120 0 v113 M160 0 v113" stroke="rgba(255,255,255,0.015)" stroke-width="1" />
  <g transform="translate(15, 15)">
    <rect x="65" y="10" width="40" height="16" rx="4" fill="#0b0f19" stroke="#3b82f6" stroke-width="1" />
    <text x="85" y="20" fill="#a5f3fc" font-size="6" font-family="system-ui" text-anchor="middle" font-weight="700">PRICING</text>
    <path d="M 85 26 L 50 48 M 85 26 L 120 48" stroke="rgba(255,255,255,0.15)" stroke-width="1" />
    
    <rect x="25" y="48" width="50" height="16" rx="4" fill="#0b0f19" stroke="#06b6d4" stroke-width="1" />
    <text x="50" y="58" fill="#ffffff" font-size="6" font-family="system-ui" text-anchor="middle">Item Promo</text>
    
    <rect x="95" y="48" width="50" height="16" rx="4" fill="#0b0f19" stroke="#10b981" stroke-width="1" />
    <text x="120" y="58" fill="#ffffff" font-size="6" font-family="system-ui" text-anchor="middle">Order Promo</text>
    
    <path d="M 50 64 L 85 85 M 120 64 L 85 85" stroke="#ef4444" stroke-dasharray="2,2" stroke-width="1" />
    
    <circle cx="85" cy="85" r="10" fill="#0b0f19" stroke="#10b981" stroke-width="1" />
    <text x="85" y="88" fill="#10b981" font-size="8" font-family="system-ui" text-anchor="middle" font-weight="bold">✓</text>
  </g>
  <text x="100" y="106" fill="#6b7280" font-size="6.5" font-family="system-ui" text-anchor="middle" font-weight="600" letter-spacing="0.1em">PROMOTION ENGINE RULE FLOW</text>
</svg>
