<svg xmlns="http://www.w3.org/2000/svg" viewBox="0 0 200 113" width="100%" height="100%">
  <rect width="200" height="113" fill="#070a13" />
  <path d="M0 20 h200 M0 40 h200 M0 60 h200 M0 80 h200 M0 100 h200 M40 0 v113 M80 0 v113 M120 0 v113 M160 0 v113" stroke="rgba(255,255,255,0.015)" stroke-width="1" />
  <g transform="translate(15, 12)">
    <rect x="0" y="0" width="170" height="75" rx="4" fill="#0b0f19" stroke="#6b7280" stroke-width="0.8" />
    <circle cx="6" cy="6" r="1.5" fill="#ef4444" />
    <circle cx="12" cy="6" r="1.5" fill="#fbbf24" />
    <circle cx="18" cy="6" r="1.5" fill="#34d399" />
    
    <rect x="0" y="12" width="30" height="63" fill="rgba(255,255,255,0.02)" stroke="#6b7280" stroke-width="0.5" />
    <line x1="5" y1="20" x2="25" y2="20" stroke="#6b7280" stroke-width="1" />
    <line x1="5" y1="28" x2="20" y2="28" stroke="#6b7280" stroke-width="1" />
    <line x1="5" y1="36" x2="22" y2="36" stroke="#6b7280" stroke-width="1" />

    <rect x="38" y="20" width="122" height="46" rx="3" fill="#070a13" stroke="rgba(255,255,255,0.05)" stroke-width="0.5" />
    <rect x="48" y="52" width="8" height="10" fill="#3b82f6" />
    <rect x="62" y="44" width="8" height="18" fill="#3b82f6" />
    <rect x="76" y="34" width="8" height="28" fill="#06b6d4" />
    <rect x="90" y="40" width="8" height="22" fill="#3b82f6" />
    <rect x="104" y="28" width="8" height="34" fill="#10b981" />
    <rect x="118" y="32" width="8" height="30" fill="#3b82f6" />
    <rect x="132" y="46" width="8" height="16" fill="#3b82f6" />
    <rect x="146" y="38" width="8" height="24" fill="#3b82f6" />
  </g>
  <text x="100" y="103" fill="#6b7280" font-size="6.5" font-family="system-ui" text-anchor="middle" font-weight="600" letter-spacing="0.1em">REACT COMMERCE ADMIN DASHBOARD</text>
</svg>
