<svg xmlns="http://www.w3.org/2000/svg" viewBox="0 0 200 113" width="100%" height="100%">
  <rect width="200" height="113" fill="#070a13" />
  <path d="M0 20 h200 M0 40 h200 M0 60 h200 M0 80 h200 M0 100 h200 M40 0 v113 M80 0 v113 M120 0 v113 M160 0 v113" stroke="rgba(255,255,255,0.015)" stroke-width="1" />
  <g transform="translate(10, 15)">
    <rect x="15" y="30" width="40" height="24" rx="3" fill="#0b0f19" stroke="#3b82f6" stroke-width="1" />
    <text x="35" y="44" fill="#3b82f6" font-size="6.5" font-family="system-ui" text-anchor="middle" font-weight="bold">Browser</text>
    
    <rect x="75" y="30" width="40" height="24" rx="3" fill="#0b0f19" stroke="#06b6d4" stroke-width="1" />
    <text x="95" y="44" fill="#06b6d4" font-size="6.5" font-family="system-ui" text-anchor="middle" font-weight="bold">sGTM Server</text>
    
    <rect x="135" y="20" width="30" height="18" rx="2" fill="#0b0f19" stroke="#10b981" stroke-width="1" />
    <text x="150" y="31" fill="#10b981" font-size="5" font-family="system-ui" text-anchor="middle">Analytics</text>

    <rect x="135" y="45" width="30" height="18" rx="2" fill="#0b0f19" stroke="#10b981" stroke-width="1" />
    <text x="150" y="56" fill="#10b981" font-size="5" font-family="system-ui" text-anchor="middle">Pinterest</text>
    
    <path d="M 55 42 L 75 42" stroke="#3b82f6" stroke-width="1" />
    <path d="M 115 42 L 125 42 L 125 29 L 135 29" stroke="#06b6d4" stroke-width="1" />
    <path d="M 115 42 L 125 42 L 125 54 L 135 54" stroke="#06b6d4" stroke-width="1" />
  </g>
  <text x="100" y="104" fill="#6b7280" font-size="6.5" font-family="system-ui" text-anchor="middle" font-weight="600" letter-spacing="0.1em">GTM / CAPI EVENT FLOW</text>
</svg>
